<svg width="64" height="21" viewBox="0 0 64 21" fill="none" xmlns="http://www.w3.org/2000/svg">
<path d="M0 2.38418e-05L52.524 0C54.7742 0 56.77 0.43 58.5115 1.29C60.2529 2.15 61.6031 3.37 62.5618 4.94999C63.5206 6.52999 64 8.37999 64 10.5C64 12.62 63.5206 14.47 62.5618 16.05C61.6031 17.63 60.2529 18.85 58.5115 19.71C56.77 20.57 54.7742 21 52.524 21L0 21V2.38418e-05ZM52.2667 16.26C54.0277 16.26 55.4767 15.72 56.5333 14.7C57.6095 13.68 58.1333 12.3 58.1333 10.5C58.1333 8.7 57.6095 7.32 56.5333 6.3C55.4767 5.28 54.0277 4.74002 52.2667 4.74002H5.81136V16.26H52.2667Z" fill="#FF3922"/>
</svg>
